<svg width="24" height="24" xmlns="http://www.w3.org/2000/svg">

 <g>
  <title>background</title>
  <rect fill="none" id="canvas_background" height="402" width="582" y="-1" x="-1"/>
 </g>
 <g>
  <title>Layer 1</title>
  <path transform="rotate(90, 18.9218, 14.9872)" id="svg_2" d="m17.502842,17.273336l3.711,-3.71l-0.438,-0.434c-0.566,-0.566 -1.555,-0.566 -2.121,0l-1.586,1.585999c-0.283998,0.284 -0.439999,0.661 -0.439999,1.061001s0.156,0.777 0.438,1.059999l0.435999,0.437z"/>
  <path transform="rotate(90, 8.87593, 5.13167)" id="svg_3" d="m10.730919,3.27575c-0.566,-0.566 -1.554999,-0.566 -2.120999,0l-1.586,1.585999c-0.283,0.284 -0.439,0.661 -0.439,1.061001s0.156,0.777 0.441,1.062l0.437,0.431999l3.703,-3.703l-0.435,-0.438z"/>
  <path transform="rotate(90, 11.9609, 11.9609)" id="svg_4" d="m18.437,4.729l-0.354,-0.354l-3.708,3.708l0.65,0.649c0.095,0.094999 0.146,0.219999 0.146,0.354s-0.051999,0.259 -0.146,0.353999l-5.585999,5.586c-0.189,0.188 -0.518001,0.189 -0.707,0l-0.650001,-0.65l-3.702,3.71l0.354,0.354c0.26,0.26 1.246,1.105 3.056,1.105c1.616,0 4.256,-0.712 7.65,-4.105c6.773,-6.775 3.158,-10.55 2.997001,-10.710999z"/>
 </g>
</svg>